# xmcd CD database file
#
# Track frame offsets:
#	150
#	16080
#	35347
#	49874
#	66197
#	81927
#	95341
#	111761
#	126793
#	141762
#	155014
#	167719
#
# Disc length: 2397 seconds
#
# Revision: 0
# Processed by: cddbd v1.5.2PL0 Copyright (c) Steve Scherf et al.
# Submitted via: CDex 1.51
#
DISCID=99095b0c
DTITLE=Billy O'Rourke - Honky Tonk Ballet
DYEAR=2002
DGENRE=Country
TTITLE0=Country As A City Girl Can Be
TTITLE1=All I Have To Be
TTITLE2=It Don't Matter To Love
TTITLE3=If You Could See Through My Eyes
TTITLE4=Somebody's Someone
TTITLE5=Buster
TTITLE6=Let Somebody Love You
TTITLE7=Guitars
TTITLE8=She's The Only Honky Tonk I Need
TTITLE9=What Do I Do With Me Now
TTITLE10=Tomorrow's Another Night
TTITLE11=I'll Forgive You (But I'll Never Forget)
EXTD=YEAR: 2002
EXTT0=
EXTT1=
EXTT2=
EXTT3=
EXTT4=
EXTT5=
EXTT6=
EXTT7=
EXTT8=
EXTT9=
EXTT10=
EXTT11=
PLAYORDER=
